<svg width="3072" height="3109" viewBox="0 0 3072 3109" fill="none" xmlns="http://www.w3.org/2000/svg">
<g clip-path="url(#clip0_54_248)">
<path d="M3065.86 1898.5H3072V1978.37L3028.99 2107.39L2949.12 2291.71L2875.39 2414.59L2813.95 2500.61L2734.08 2617.34L2660.35 2715.65L2605.06 2777.09L2537.47 2838.53L2476.03 2869.25L2396.16 2893.82L2316.29 2906.11L2150.4 2918.4H2052.1V2935L2058.24 3078.14L2033 3042.5L1990.66 2985.98L1968 2949L1941.5 2912.26L1812.48 2715.65L1744.9 2611.2L1683.46 2519.04L1695.74 2488.32L1744.9 2414.59L1824.77 2297.86L1892.35 2199.55L1959.94 2101.25L2027.52 2002.94L2070.53 1941.5H2076.67L2082.82 2095.1L2316.29 2101.25H2420.74L2457.6 2107.39H2598.91L2734.08 2095.1L2838.53 2064.38L2942.98 2015.23L3016.7 1959.94L3065.86 1898.5Z" fill="white"/>
<path d="M307.2 1781.76L319.488 1787.9L344.064 1849.34L399.36 1910.78L460.8 1953.79L546.816 2002.94L663.552 2045.95L890.88 2101.25L970.752 2113.54L1093.63 2119.68L1492.5 2111L1517.57 2187.26L1523.71 2230.27V2684.93L1517.57 2869.25L1511.42 2930.69L1474.56 2949.12H1363.97L1314.82 2942.98L1173.5 2936.83L983.04 2912.26L866.304 2881.54L811.008 2856.96L774.144 2807.81L675.84 2648.06L583.68 2482.18L522.24 2371.58L473.088 2285.57L423.936 2187.26L374.784 2095.1L319.488 1966.08L307.2 1923.07L301.056 1873.92V1818.62L307.2 1781.76Z" fill="white"/>
<path d="M1769.47 362.496H2181.12L2297.86 368.64L2359.3 399.36L2408.45 479.232L2457.6 577.536L2506.75 681.984L2549.76 768L2555.9 786.432H2715.65V829.44L2617.34 970.752L2549.76 1069.06L2463.74 1191.94L2433.02 1234.94L2359.3 1241.09L1837.06 1253.38L1830.91 1234.94L1861.63 1093.63L1855.49 1050.62L1794.05 964.608L1738.75 878.592L1646.59 712.704L1566.72 565.248L1492.99 442.368L1456.13 368.64L1769.47 362.496Z" fill="white"/>
<path d="M1148.93 497.664H1210.37L1247.23 516.096L1290.24 565.248L1345.54 681.984L1400.83 811.008L1431.55 854.016L1536 878.592L1622.02 921.6L1689.6 976.896L1751.04 1038.34L1794.05 1105.92V1148.93L1769.47 1259.52L1658.88 1327.1L1560.58 1382.4L1357.82 1486.85L1241.09 1548.29L1155.07 1585.15H1112.06L1081.34 1560.58L1038.34 1486.85L1007.62 1388.54L1001.47 1363.97L995.328 1228.8L1007.62 1155.07L1013.76 1136.64V1081.34L983.04 1007.62L903.168 872.448L860.16 786.432L847.872 749.568V721.92V694.272L872.448 645.12L927.744 595.968L1069.06 522.24L1148.93 497.664Z" fill="white"/>
<path d="M817.152 1259.52H927.744L933.888 1265.66L946.176 1394.69L964.608 1456.13L1007.62 1536L1075.2 1609.73L1112.06 1637.5L1118.5 1662L1112.06 1732.61L1137 1808L1188.5 1867.78L1198.08 1887.5V1916.93L1196 1937.5L1184 1958.5L1167.36 1972.22L1136.64 1990.66L1099.78 2002.94L952.32 2015.23L811.008 2002.94L694.272 1978.37L620.544 1953.79L516.096 1898.5L430.08 1837.06L399.36 1806.34L362.496 1757.18L344.064 1720.32V1665.02L393.216 1566.72L436.224 1499.14L473.088 1449.98L460.8 1425.41L325.632 1290.24L331.776 1271.81L817.152 1259.52Z" fill="white"/>
<path d="M2770.94 1363.97H2844.67L2893.82 1382.4L2930.69 1431.55L2979.84 1517.57L3028.99 1615.87L3059.71 1695.74L3072 1744.9V1787.9L3010.56 1855.49L2967.55 1904.64L2899.97 1959.94L2807.81 2002.94L2672.64 2039.81L2598.91 2052.1H2433.02L2377.73 2027.52L2334.72 1978.37L2285.57 1880.06L2217.98 1763.33L2205.7 1738.75L2194.5 1721.5L2188 1706.5L2183 1694V1686.5L2185.5 1681L2191.5 1674.5L2194.5 1670.5L2202 1667L2212 1661L2218.5 1658L2328.58 1603.58L2463.74 1517.57L2611.2 1431.55L2703.36 1382.4L2770.94 1363.97Z" fill="white"/>
<path d="M1806.34 1308.67H1861.63L1910.78 1351.68L1941.5 1406.98V1456.13L1910.78 1486.85L1849.34 1529.86L1714.18 1609.73L1572.86 1689.6L1462.27 1751.04L1339.39 1818.62L1271.81 1843.2H1228.8L1191.94 1818.62L1167.36 1775.62L1161.22 1751.04V1695.74L1185.79 1665.02L1333.25 1585.15L1492.99 1499.14L1652.74 1400.83L1757.18 1339.39L1806.34 1308.67Z" fill="white"/>
<path d="M1947.65 1548.29H1984.51L2033.66 1591.3L2070.53 1652.74V1695.74L2039.81 1732.61L1910.78 1812.48L1781.76 1886.21L1652.74 1959.94L1579.01 2002.94L1486.85 2045.95L1400.83 2033.66L1314.82 2027.52L1296.38 2015.23L1290.24 1996.8V1941.5L1314.82 1910.78L1449.98 1837.06L1622.02 1744.9L1751.04 1665.02L1843.2 1609.73L1947.65 1548.29Z" fill="white"/>
<path d="M2082.82 1775.62L2138.11 1781.76L2162.69 1806.34L2248.7 1959.94L2297.86 2039.81L2273.28 2052.1L2267.14 2045.95L2144.26 2033.66L2119.68 1910.78L2107.39 1861.63L2088.96 1855.49L2070.53 1861.63L2009.09 1941.5L1923.07 2052.1L1855.49 2138.11L1787.9 2224.13L1726.46 2304L1658.88 2390.02L1603.58 2463.74H1591.3L1585.15 2230.27L1560.58 2101.25V2070.53L1628.16 2021.38L1763.33 1935.36L1929.22 1837.06L2021.38 1794.05L2082.82 1775.62Z" fill="white"/>
<path d="M1290.24 374.784H1351.68L1388.54 393.216L1443.84 454.656L1499.14 559.104L1572.86 737.28L1603.58 811.008V823.296L1615.87 829.44L1585.15 835.584L1511.42 811.008L1474.56 798.72L1449.98 774.144L1388.54 632.832L1333.25 540.672L1308.67 509.952L1253.38 491.52L1198.08 479.232L1185.79 466.944V436.224L1247.23 393.216L1290.24 374.784Z" fill="white"/>
</g>
<defs>
<clipPath id="clip0_54_248">
<rect width="3072" height="3108.86" rx="139" fill="white"/>
</clipPath>
</defs>
</svg>
